<svg width="1920" height="1080" viewBox="0 0 1920 1080" xmlns="http://www.w3.org/2000/svg"><rect width="1920" height="1080" fill="#ffffff"/><path d="M 0,1080 C 0,1080 0,360 0,360 C 147.03571428571428,398.3928571428571 294.07142857142856,436.7857142857143 457,450 C 619.9285714285714,463.2142857142857 798.75,451.24999999999994 958,407 C 1117.25,362.75000000000006 1256.9285714285716,286.2142857142857 1414,273 C 1571.0714285714284,259.7857142857143 1745.5357142857142,309.8928571428571 1920,360 C 1920,360 1920,1080 1920,1080 Z" fill="#457d58" opacity="0.19999999999999998"/><path d="M 0,1080 C 0,1080 0,720 0,720 C 169.39285714285717,741.5714285714286 338.78571428571433,763.1428571428571 489,780 C 639.2142857142857,796.8571428571429 770.25,809.0000000000001 921,813 C 1071.75,816.9999999999999 1242.2142857142858,812.8571428571428 1412,796 C 1581.7857142857142,779.1428571428572 1750.892857142857,749.5714285714287 1920,720 C 1920,720 1920,1080 1920,1080 Z" fill="#457d58" opacity="0.39999999999999997"/></svg>